<?xml version="1.0" encoding="utf-8"?>
<!-- Generator: Adobe Illustrator 16.0.0, SVG Export Plug-In . SVG Version: 6.00 Build 0)  -->
<!DOCTYPE svg PUBLIC "-//W3C//DTD SVG 1.1//EN" "http://www.w3.org/Graphics/SVG/1.1/DTD/svg11.dtd">
<svg version="1.1" xmlns="http://www.w3.org/2000/svg" xmlns:xlink="http://www.w3.org/1999/xlink" x="0px" y="0px" width="193px"
	 height="193px" viewBox="0 0 193 193" enable-background="new 0 0 193 193" xml:space="preserve">
<g id="guides">
</g>
<g id="BG">
</g>
<g id="content">
</g>
<g id="footer">
	<rect x="-726.403" y="-51.959" fill="#15203A" width="1648.21" height="290"/>
	<g>
		<g>
			<path fill="#ED263B" d="M97.884,178.839c0.026-0.297-0.064-0.555-0.271-0.775l-2.066-2.117c-0.451-0.452-0.658-1.059-0.606-1.678
				s0.349-1.188,0.853-1.562c0.503-0.375,1.136-0.517,1.742-0.4c0.606,0.142,1.136,0.491,1.446,1.046
				c0.168,0.297,0.064,0.658-0.232,0.852c-0.297,0.167-0.672,0.064-0.839-0.232c-0.143-0.232-0.349-0.387-0.62-0.452
				c-0.271-0.051-0.529,0.013-0.749,0.181c-0.219,0.167-0.349,0.387-0.361,0.671c-0.025,0.271,0.064,0.517,0.259,0.71l2.052,2.117
				c0.452,0.465,0.685,1.097,0.633,1.73c-0.052,0.658-0.374,1.213-0.878,1.613c-0.517,0.4-1.161,0.529-1.794,0.413
				c-0.633-0.142-1.175-0.516-1.484-1.071c-0.194-0.297-0.078-0.684,0.219-0.852c0.297-0.167,0.659-0.064,0.853,0.232
				c0.142,0.245,0.361,0.413,0.658,0.478c0.297,0.052,0.568-0.013,0.801-0.193C97.742,179.381,97.845,179.136,97.884,178.839z"/>
		</g>
		
			<rect x="29.662" y="30.56" transform="matrix(0.7071 -0.7071 0.7071 0.7071 -40.7337 97.07)" fill-rule="evenodd" clip-rule="evenodd" fill="none" stroke="#ED263B" stroke-width="2.1927" stroke-linecap="round" stroke-linejoin="round" stroke-miterlimit="10" width="134.289" height="134.29"/>
		<g>
			<path fill="#ED263B" d="M97.527,24.364c-0.259-0.555-0.529-1.11-0.813-1.691c-0.478-0.981-1.098-2.233-1.627-3.356v4.776
				c0,0.349-0.271,0.62-0.619,0.62s-0.62-0.271-0.62-0.62v-7.487c0-0.297,0.181-0.542,0.478-0.607
				c0.298-0.064,0.556,0.078,0.697,0.336c0.259,0.555,0.529,1.11,0.813,1.691c0.478,0.981,1.071,2.233,1.627,3.356v-4.776
				c0-0.349,0.271-0.62,0.619-0.62s0.62,0.271,0.62,0.62v7.487c0,0.297-0.207,0.542-0.478,0.606
				C97.928,24.764,97.644,24.623,97.527,24.364z"/>
		</g>
		<g>
			<path fill="#ED263B" d="M173.022,93.574h2.582c0.349,0,0.619,0.271,0.619,0.62s-0.271,0.62-0.619,0.62h-1.963v2.324h1.704
				c0.349,0,0.62,0.271,0.62,0.619c0,0.349-0.271,0.62-0.62,0.62h-1.704v2.582h1.963c0.349,0,0.619,0.271,0.619,0.62
				s-0.271,0.62-0.619,0.62h-2.582c-0.349,0-0.62-0.271-0.62-0.62v-7.384C172.402,93.845,172.674,93.574,173.022,93.574z"/>
		</g>
		<g>
			<path fill="#ED263B" d="M17.72,95.388c0.129,0.542,0.259,1.097,0.4,1.666c0.245,0.981,0.542,2.22,0.813,3.317
				c0.258-1.097,0.555-2.336,0.8-3.317c0.143-0.568,0.271-1.123,0.4-1.666c0.064-0.297,0.31-0.478,0.606-0.478
				s0.529,0.181,0.594,0.478c0.13,0.542,0.259,1.097,0.4,1.666c0.245,0.981,0.542,2.22,0.813,3.317
				c0.258-1.097,0.555-2.336,0.801-3.317c0.142-0.568,0.271-1.123,0.399-1.666c0.091-0.349,0.4-0.555,0.749-0.465
				s0.542,0.426,0.452,0.749l-1.808,7.487c-0.064,0.297-0.297,0.478-0.594,0.478s-0.542-0.181-0.606-0.478
				c-0.129-0.542-0.259-1.098-0.4-1.666c-0.245-0.981-0.542-2.194-0.801-3.317c-0.271,1.123-0.567,2.336-0.812,3.317
				c-0.143,0.568-0.271,1.123-0.4,1.666c-0.064,0.297-0.297,0.478-0.594,0.478s-0.542-0.181-0.607-0.478l-1.807-7.487
				c-0.091-0.323,0.129-0.659,0.451-0.749C17.319,94.833,17.63,95.039,17.72,95.388z"/>
		</g>
		<g>
			
				<path fill-rule="evenodd" clip-rule="evenodd" fill="none" stroke="#ED263B" stroke-width="2.1927" stroke-linecap="round" stroke-linejoin="round" stroke-miterlimit="10" d="
				M125.461,93.664c0,0-9.077-26.16-54.701-43.385"/>
			
				<path fill-rule="evenodd" clip-rule="evenodd" fill="none" stroke="#ED263B" stroke-width="2.1927" stroke-linecap="round" stroke-linejoin="round" stroke-miterlimit="10" d="
				M121.298,95.728c0,0-8.749-23.209-48.743-39.264"/>
			
				<path fill-rule="evenodd" clip-rule="evenodd" fill="none" stroke="#ED263B" stroke-width="2.1927" stroke-linecap="round" stroke-linejoin="round" stroke-miterlimit="10" d="
				M117.393,97.642c0,0-8.369-18.922-40.933-32.709"/>
			
				<path fill-rule="evenodd" clip-rule="evenodd" fill="none" stroke="#ED263B" stroke-width="2.1927" stroke-linecap="round" stroke-linejoin="round" stroke-miterlimit="10" d="
				M114.682,100.335c0,0-7.921-16.043-35.654-28.262"/>
			
				<path fill-rule="evenodd" clip-rule="evenodd" fill="none" stroke="#ED263B" stroke-width="2.1927" stroke-linecap="round" stroke-linejoin="round" stroke-miterlimit="10" d="
				M111.203,102.566c0,0-7.13-12.312-28.869-22.328"/>
			
				<path fill-rule="evenodd" clip-rule="evenodd" fill="none" stroke="#ED263B" stroke-width="2.1927" stroke-linecap="round" stroke-linejoin="round" stroke-miterlimit="10" d="
				M107.921,104.98c0,0-5.934-8.83-21.985-16.736"/>
			
				<path fill-rule="evenodd" clip-rule="evenodd" fill="none" stroke="#ED263B" stroke-width="2.1927" stroke-linecap="round" stroke-linejoin="round" stroke-miterlimit="10" d="
				M149.649,116.224l-5.302-3.545l10.711-12.352c0,0-8.673-10.777-26.067-8.182c0,0-6.772-20.072-28.36-31.73"/>
			
				<polyline fill-rule="evenodd" clip-rule="evenodd" fill="none" stroke="#ED263B" stroke-width="2.1927" stroke-linecap="round" stroke-linejoin="round" stroke-miterlimit="10" points="
				149.649,116.359 104.299,116.335 43.005,90.373 57.646,105.117 47.427,119.333 98.109,95.601 			"/>
			
				<line fill-rule="evenodd" clip-rule="evenodd" fill="none" stroke="#ED263B" stroke-width="2.1927" stroke-linecap="round" stroke-linejoin="round" stroke-miterlimit="10" x1="93.325" y1="117.597" x2="79.343" y2="123.689"/>
			
				<line fill-rule="evenodd" clip-rule="evenodd" fill="none" stroke="#ED263B" stroke-width="2.1927" stroke-linecap="round" stroke-linejoin="round" stroke-miterlimit="10" x1="87.681" y1="115.185" x2="73.695" y2="121.271"/>
			
				<line fill-rule="evenodd" clip-rule="evenodd" fill="none" stroke="#ED263B" stroke-width="2.1927" stroke-linecap="round" stroke-linejoin="round" stroke-miterlimit="10" x1="82.033" y1="112.767" x2="68.055" y2="118.851"/>
			
				<line fill-rule="evenodd" clip-rule="evenodd" fill="none" stroke="#ED263B" stroke-width="2.1927" stroke-linecap="round" stroke-linejoin="round" stroke-miterlimit="10" x1="140.29" y1="106.597" x2="126.318" y2="106.597"/>
			
				<path fill-rule="evenodd" clip-rule="evenodd" fill="none" stroke="#ED263B" stroke-width="2.1927" stroke-linecap="round" stroke-linejoin="round" stroke-miterlimit="10" d="
				M136.311,107.654c-0.209,1.473-1.478,2.609-3.005,2.609c-1.497,0-2.741-1.082-2.994-2.506"/>
			
				<path fill-rule="evenodd" clip-rule="evenodd" fill="none" stroke="#ED263B" stroke-width="2.1927" stroke-linecap="round" stroke-linejoin="round" stroke-miterlimit="10" d="
				M124.634,100.253c8.252-5.791,17.442-6.445,29.765,0.488"/>
		</g>
	</g>
</g>
<g id="Navigation">
</g>
<g id="SlideNav" display="none">
</g>
<g id="Content">
</g>
<g id="Specs">
</g>
</svg>
